Coordinates
version=1
nRows=6
nColumns=36
inDegrees=yes

Units are S.I. units (second, meters, Newtons, ...)
If the header above contains a line with 'inDegrees', this indicates whether rotational values are in degrees (yes) or radians (no).

endheader
time	pelvis_tilt	pelvis_list	pelvis_rotation	pelvis_tx	pelvis_ty	pelvis_tz	hip_flexion_r	hip_adduction_r	hip_rotation_r	knee_angle_r	knee_angle_r_beta	ankle_angle_r	subtalar_angle_r	mtp_angle_r	hip_flexion_l	hip_adduction_l	hip_rotation_l	knee_angle_l	knee_angle_l_beta	ankle_angle_l	subtalar_angle_l	mtp_angle_l	lumbar_extension	lumbar_bending	lumbar_rotation	arm_flex_r	arm_add_r	arm_rot_r	elbow_flex_r	pro_sup_r	arm_flex_l	arm_add_l	arm_rot_l	elbow_flex_l	pro_sup_l
      4.47083330	     -4.30045915	     -0.97070117	     20.95901023	      0.20841807	      0.91284093	     -0.00362093	     16.78891582	     -1.35940097	     10.18648475	     24.20161485	      0.42239786	     13.14200954	     -9.30897676	     -7.49999987	     18.29247045	     -6.41593618	      7.08784647	      7.33950745	      0.12809857	      6.99034519	     -5.91164303	     -7.49999987	    -10.98513714	     -2.93911290	      1.33214005	      6.40085939	    -11.93616326	     10.84024681	     55.62720037	     76.75846234	     -1.46875377	     -9.92715779	    -11.40894309	     28.14225243	     64.57300881
      4.47500000	     -4.31840219	     -0.92566500	     21.11609450	      0.20824269	      0.90960588	     -0.00319784	     16.86033485	     -1.43383123	     10.23442926	     24.43381648	      0.42645055	     13.17260708	     -9.37857668	     -7.49999987	     18.29601768	     -6.35224883	      7.05122069	      7.31109600	      0.12760270	      7.07153913	     -5.87255214	     -7.49999987	    -10.94581692	     -2.99971943	      1.58995238	      6.24761278	    -12.08152170	     10.87768664	     55.25903843	     76.62108493	     -1.61582000	     -9.69608372	    -11.84265295	     28.26439142	     64.66431941
      4.47916670	     -4.32461241	     -0.85104167	     21.28189995	      0.20830300	      0.90990521	     -0.00320057	     16.83356811	     -1.56368105	     10.27332108	     24.43798919	      0.42652337	     13.52697808	     -9.49512574	     -7.49999987	     18.28668792	     -6.25670341	      7.00637726	      7.27429860	      0.12696046	      7.09556445	     -5.96852422	     -7.49999987	    -10.78886354	     -3.09430047	      1.96393918	      6.14839285	    -12.08977107	     10.83051452	     54.64477377	     76.40831380	     -1.72432353	     -9.38961688	    -12.45318227	     28.39407129	     64.76723702
      4.48333330	     -4.27637492	     -0.82803253	     21.40922078	      0.20392547	      0.91035234	      0.00220820	     16.95050042	     -1.53543918	     10.31436067	     24.48756433	      0.42738862	     13.59119262	     -9.51476625	     -7.49999987	     18.38742796	     -6.30773117	      7.01012287	      7.23696725	      0.12630891	      7.12680828	     -5.98568890	     -7.49999987	    -10.90554278	     -3.09580446	      2.06990197	      6.16770921	    -12.06426511	     10.84211254	     54.59860845	     76.43514936	     -1.78263756	     -9.29599339	    -12.46443667	     28.38416840	     64.78457018
      4.48750000	     -4.44187128	     -0.79180558	     21.35490157	      0.20383245	      0.90728302	      0.00240978	     17.60829155	     -1.52612620	     10.39452599	     25.18744435	      0.43960383	     13.86965270	     -9.91812397	     -7.49999987	     18.61160306	     -6.34227932	      6.99095246	      7.05282935	      0.12309509	      7.15205585	     -6.49096017	     -7.49999987	    -10.78193459	     -3.33717546	      2.29220878	      6.65463136	    -11.66380128	     10.10523053	     52.95924113	     84.37120484	     -2.07066405	     -8.51446439	    -17.01473986	     29.33076572	     72.49893087
      4.49166670	     -4.47745421	     -0.68404801	     21.46184798	      0.20355342	      0.90757054	      0.00290015	     17.82600704	     -1.56774127	     10.63940363	     25.56730777	      0.44623370	     13.98091845	     -9.99203658	     -7.49999987	     18.64813825	     -6.22935938	      7.01781463	      7.06959972	      0.12338779	      7.15637131	     -6.64329419	     -7.49999987	    -10.89005220	     -3.50851381	      2.63054755	      6.68382238	    -11.53700540	      9.94951391	     52.51618777	     83.09143144	     -2.06613970	     -8.34261278	    -17.08816555	     29.80893024	     71.77788184
